<?xml version="1.0" encoding="iso-8859-1"?>
<!-- Uploaded to: SVG Repo, www.svgrepo.com, Generator: SVG Repo Mixer Tools -->
<svg version="1.1" id="Layer_1" xmlns="http://www.w3.org/2000/svg" xmlns:xlink="http://www.w3.org/1999/xlink" 
	 viewBox="0 0 392.598 392.598" xml:space="preserve">
<rect x="133.883" y="118.271" style="fill:#FFC10D;" width="123.604" height="84.04"/>
<polygon style="fill:#FFFFFF;" points="129.293,224.097 112.291,252.541 279.273,252.541 262.271,224.097 "/>
<path style="fill:#194F82;" d="M307.717,257.907l-28.38-47.709V107.345c0-6.012-4.848-10.925-10.925-10.925H123.087
	c-6.012,0-10.925,4.848-10.925,10.925v102.853l-28.444,47.709c-4.073,6.335,0.323,16.485,9.374,16.485h205.253
	C307.329,274.327,312.048,264.63,307.717,257.907z M112.291,252.541l17.002-28.509h133.042l17.002,28.509H112.291z M133.883,118.271
	h123.604v84.04H133.883V118.271L133.883,118.271z"/>
<g>
	<path style="fill:#56ACE0;" d="M351.418,60.994c10.667,0,19.329-8.663,19.329-19.329s-8.663-19.329-19.329-19.329
		s-19.329,8.663-19.329,19.329C332.089,52.267,340.752,60.994,351.418,60.994z"/>
	<path style="fill:#56ACE0;" d="M41.115,22.271c-10.667,0-19.329,8.663-19.329,19.329s8.663,19.329,19.329,19.329
		S60.444,52.267,60.444,41.6S51.782,22.271,41.115,22.271z"/>
	<path style="fill:#56ACE0;" d="M351.418,331.604c-10.667,0-19.329,8.663-19.329,19.329c0,10.667,8.663,19.329,19.329,19.329
		s19.329-8.663,19.329-19.329C370.812,340.331,362.085,331.604,351.418,331.604z"/>
	<path style="fill:#56ACE0;" d="M41.115,331.604c-10.667,0-19.329,8.663-19.329,19.329c0,10.667,8.663,19.329,19.329,19.329
		s19.329-8.663,19.329-19.329C60.444,340.331,51.782,331.604,41.115,331.604z"/>
</g>
<g>
	<path style="fill:#194F82;" d="M307.911,100.558l23.273-23.273c6.012,3.426,12.929,5.43,20.299,5.43
		c22.626,0,41.115-18.36,41.115-41.115s-18.424-41.05-41.18-41.05c-22.626,0-41.115,18.489-41.115,41.115
		c0,7.434,2.004,14.287,5.43,20.299l-23.273,23.273c-4.267,4.267-4.267,11.119,0,15.386
		C296.792,104.824,303.644,104.824,307.911,100.558z M351.418,22.271c10.667,0,19.329,8.663,19.329,19.329
		s-8.663,19.329-19.329,19.329s-19.329-8.663-19.329-19.329S340.752,22.271,351.418,22.271z"/>
	<path style="fill:#194F82;" d="M76.735,61.899c3.426-6.012,5.43-12.929,5.43-20.299c0-22.626-18.36-41.115-41.115-41.115
		S0,18.974,0,41.6s18.489,41.115,41.115,41.115c7.434,0,14.287-2.004,20.299-5.43l23.273,23.273c4.267,4.267,11.119,4.267,15.386,0
		s4.267-11.119,0-15.386L76.735,61.899z M41.115,60.994c-10.667,0-19.329-8.663-19.329-19.329s8.663-19.329,19.329-19.329
		s19.329,8.663,19.329,19.329C60.444,52.267,51.782,60.994,41.115,60.994z"/>
	<path style="fill:#194F82;" d="M351.418,309.883c-7.434,0-14.287,2.004-20.299,5.43l-23.273-23.273
		c-4.267-4.267-11.119-4.267-15.386,0c-4.267,4.267-4.267,11.119,0,15.386l23.273,23.273c-3.426,6.012-5.43,12.929-5.43,20.299
		c0,22.626,18.489,41.115,41.115,41.115s41.115-18.36,41.115-41.115C392.533,328.307,374.174,309.883,351.418,309.883z
		 M351.418,370.327c-10.667,0-19.329-8.663-19.329-19.329c0-10.667,8.663-19.329,19.329-19.329s19.329,8.663,19.329,19.329
		C370.812,361.665,362.085,370.327,351.418,370.327z"/>
	<path style="fill:#194F82;" d="M84.622,292.04l-23.273,23.273c-6.012-3.426-12.929-5.43-20.299-5.43
		C18.489,309.883,0,328.242,0,350.998c0,22.626,18.489,41.115,41.115,41.115s41.115-18.36,41.115-41.115
		c0-7.434-2.004-14.287-5.43-20.299l23.273-23.273c4.267-4.267,4.267-11.119,0-15.386C95.741,287.774,88.889,287.774,84.622,292.04z
		 M41.115,370.327c-10.667,0-19.329-8.663-19.329-19.329c0-10.667,8.663-19.329,19.329-19.329s19.329,8.663,19.329,19.329
		C60.444,361.665,51.782,370.327,41.115,370.327z"/>
</g>
</svg>