<?xml version="1.0" encoding="iso-8859-1"?>
<!-- Uploaded to: SVG Repo, www.svgrepo.com, Generator: SVG Repo Mixer Tools -->
<svg height="800px" width="800px" version="1.1" id="Layer_1" xmlns="http://www.w3.org/2000/svg" xmlns:xlink="http://www.w3.org/1999/xlink" 
	 viewBox="0 0 512 512" xml:space="preserve">
<g transform="translate(1 1)">
	<path style="fill:#FFE100;" d="M7.533,365.933V144.067c0-13.653,11.093-25.6,25.6-25.6h443.733c13.653,0,25.6,11.093,25.6,25.6
		v221.867c0,13.653-11.093,25.6-25.6,25.6H33.133C18.627,391.533,7.533,380.44,7.533,365.933"/>
	<path style="fill:#FFA800;" d="M476.867,118.467H459.8c13.653,0,25.6,11.093,25.6,25.6v221.867c0,13.653-11.093,25.6-25.6,25.6
		h17.067c13.653,0,25.6-11.093,25.6-25.6V144.067C502.467,129.56,491.373,118.467,476.867,118.467"/>
	<path style="fill:#FFFFFF;" d="M33.133,118.467H50.2c-13.653,0-25.6,11.093-25.6,25.6v221.867c0,13.653,11.093,25.6,25.6,25.6
		H33.133c-13.653,0-25.6-11.093-25.6-25.6V144.067C7.533,129.56,18.627,118.467,33.133,118.467"/>
	<polygon style="fill:#FFE100;" points="75.8,391.533 451.267,391.533 451.267,118.467 75.8,118.467 	"/>
	<path style="fill:#FDCC00;" d="M41.667,280.6c-14.507,0-25.6-11.093-25.6-25.6c0-14.507,11.093-25.6,25.6-25.6
		s25.6,11.093,25.6,25.6C67.267,269.507,56.173,280.6,41.667,280.6"/>
	<g>
		<path style="fill:#FFE100;" d="M220.867,459.8c-5.12,0-8.533-3.413-8.533-8.533v-59.733c0-5.12,3.413-8.533,8.533-8.533
			c5.12,0,8.533,3.413,8.533,8.533v59.733C229.4,456.387,225.987,459.8,220.867,459.8z"/>
		<path style="fill:#FFE100;" d="M135.533,459.8c-5.12,0-8.533-3.413-8.533-8.533v-59.733c0-5.12,3.413-8.533,8.533-8.533
			s8.533,3.413,8.533,8.533v59.733C144.067,456.387,140.653,459.8,135.533,459.8z"/>
		<path style="fill:#FFE100;" d="M50.2,459.8c-5.12,0-8.533-3.413-8.533-8.533v-59.733c0-5.12,3.413-8.533,8.533-8.533
			s8.533,3.413,8.533,8.533v59.733C58.733,456.387,55.32,459.8,50.2,459.8z"/>
		<path style="fill:#FFE100;" d="M476.867,459.8c-5.12,0-8.533-3.413-8.533-8.533v-59.733c0-5.12,3.413-8.533,8.533-8.533
			c5.12,0,8.533,3.413,8.533,8.533v59.733C485.4,456.387,481.987,459.8,476.867,459.8z"/>
		<path style="fill:#FFE100;" d="M391.533,459.8c-5.12,0-8.533-3.413-8.533-8.533v-59.733c0-5.12,3.413-8.533,8.533-8.533
			s8.533,3.413,8.533,8.533v59.733C400.067,456.387,396.653,459.8,391.533,459.8z"/>
		<path style="fill:#FFE100;" d="M306.2,459.8c-5.12,0-8.533-3.413-8.533-8.533v-59.733c0-5.12,3.413-8.533,8.533-8.533
			s8.533,3.413,8.533,8.533v59.733C314.733,456.387,311.32,459.8,306.2,459.8z"/>
		<path style="fill:#FFE100;" d="M220.867,127c-5.12,0-8.533-3.413-8.533-8.533V58.733c0-5.12,3.413-8.533,8.533-8.533
			c5.12,0,8.533,3.413,8.533,8.533v59.733C229.4,123.587,225.987,127,220.867,127z"/>
		<path style="fill:#FFE100;" d="M135.533,127c-5.12,0-8.533-3.413-8.533-8.533V58.733c0-5.12,3.413-8.533,8.533-8.533
			s8.533,3.413,8.533,8.533v59.733C144.067,123.587,140.653,127,135.533,127z"/>
		<path style="fill:#FFE100;" d="M50.2,127c-5.12,0-8.533-3.413-8.533-8.533V58.733c0-5.12,3.413-8.533,8.533-8.533
			s8.533,3.413,8.533,8.533v59.733C58.733,123.587,55.32,127,50.2,127z"/>
		<path style="fill:#FFE100;" d="M476.867,127c-5.12,0-8.533-3.413-8.533-8.533V58.733c0-5.12,3.413-8.533,8.533-8.533
			c5.12,0,8.533,3.413,8.533,8.533v59.733C485.4,123.587,481.987,127,476.867,127z"/>
		<path style="fill:#FFE100;" d="M391.533,127c-5.12,0-8.533-3.413-8.533-8.533V58.733c0-5.12,3.413-8.533,8.533-8.533
			s8.533,3.413,8.533,8.533v59.733C400.067,123.587,396.653,127,391.533,127z"/>
		<path style="fill:#FFE100;" d="M306.2,127c-5.12,0-8.533-3.413-8.533-8.533V58.733c0-5.12,3.413-8.533,8.533-8.533
			s8.533,3.413,8.533,8.533v59.733C314.733,123.587,311.32,127,306.2,127z"/>
	</g>
	<g>
		<path style="fill:#00DA6C;" d="M478.573,502.467h-19.627c-8.533,0-15.36-6.827-15.36-15.36V467.48
			c0-8.533,6.827-15.36,15.36-15.36h19.627c8.533,0,15.36,6.827,15.36,15.36v19.627C493.933,495.64,487.107,502.467,478.573,502.467
			"/>
		<path style="fill:#00DA6C;" d="M393.24,502.467h-19.627c-8.533,0-15.36-6.827-15.36-15.36V467.48c0-8.533,6.827-15.36,15.36-15.36
			h19.627c8.533,0,15.36,6.827,15.36,15.36v19.627C408.6,495.64,401.773,502.467,393.24,502.467"/>
		<path style="fill:#00DA6C;" d="M307.907,502.467H288.28c-8.533,0-15.36-6.827-15.36-15.36V467.48c0-8.533,6.827-15.36,15.36-15.36
			h19.627c8.533,0,15.36,6.827,15.36,15.36v19.627C323.267,495.64,316.44,502.467,307.907,502.467"/>
		<path style="fill:#00DA6C;" d="M222.573,502.467h-19.627c-8.533,0-15.36-6.827-15.36-15.36V467.48
			c0-8.533,6.827-15.36,15.36-15.36h19.627c8.533,0,15.36,6.827,15.36,15.36v19.627C237.933,495.64,231.107,502.467,222.573,502.467
			"/>
		<path style="fill:#00DA6C;" d="M137.24,502.467h-19.627c-8.533,0-15.36-6.827-15.36-15.36V467.48c0-8.533,6.827-15.36,15.36-15.36
			h19.627c8.533,0,15.36,6.827,15.36,15.36v19.627C152.6,495.64,145.773,502.467,137.24,502.467"/>
		<path style="fill:#00DA6C;" d="M51.907,502.467h-20.48c-8.533,0-15.36-6.827-15.36-15.36V467.48c0-8.533,6.827-15.36,15.36-15.36
			h19.627c8.533,0,15.36,6.827,15.36,15.36v19.627C67.267,495.64,60.44,502.467,51.907,502.467"/>
		<path style="fill:#00DA6C;" d="M478.573,58.733h-19.627c-8.533,0-15.36-6.827-15.36-15.36v-20.48c0-8.533,6.827-15.36,15.36-15.36
			h19.627c8.533,0,15.36,6.827,15.36,15.36V42.52C493.933,51.907,487.107,58.733,478.573,58.733"/>
		<path style="fill:#00DA6C;" d="M393.24,58.733h-19.627c-8.533,0-15.36-6.827-15.36-15.36v-20.48c0-8.533,6.827-15.36,15.36-15.36
			h19.627c8.533,0,15.36,6.827,15.36,15.36V42.52C408.6,51.907,401.773,58.733,393.24,58.733"/>
		<path style="fill:#00DA6C;" d="M307.907,58.733H288.28c-8.533,0-15.36-6.827-15.36-15.36v-20.48c0-8.533,6.827-15.36,15.36-15.36
			h19.627c8.533,0,15.36,6.827,15.36,15.36V42.52C323.267,51.907,316.44,58.733,307.907,58.733"/>
		<path style="fill:#00DA6C;" d="M222.573,58.733h-19.627c-8.533,0-15.36-6.827-15.36-15.36v-20.48c0-8.533,6.827-15.36,15.36-15.36
			h19.627c8.533,0,15.36,6.827,15.36,15.36V42.52C237.933,51.907,231.107,58.733,222.573,58.733"/>
		<path style="fill:#00DA6C;" d="M137.24,58.733h-19.627c-8.533,0-15.36-6.827-15.36-15.36v-20.48c0-8.533,6.827-15.36,15.36-15.36
			h19.627c8.533,0,15.36,6.827,15.36,15.36V42.52C152.6,51.907,145.773,58.733,137.24,58.733"/>
		<path style="fill:#00DA6C;" d="M51.907,58.733h-20.48c-8.533,0-15.36-6.827-15.36-15.36v-20.48c0-8.533,6.827-15.36,15.36-15.36
			h19.627c9.387,0,16.213,6.827,16.213,15.36V42.52C67.267,51.907,60.44,58.733,51.907,58.733"/>
	</g>
	<path d="M476.867,400.067H33.133C14.36,400.067-1,384.707-1,365.933V144.067c0-18.773,15.36-34.133,34.133-34.133h443.733
		c18.773,0,34.133,15.36,34.133,34.133v221.867C511,384.707,495.64,400.067,476.867,400.067z M33.133,127
		c-9.387,0-17.067,7.68-17.067,17.067v221.867c0,9.387,7.68,17.067,17.067,17.067h443.733c9.387,0,17.067-7.68,17.067-17.067
		V144.067c0-9.387-7.68-17.067-17.067-17.067H33.133z"/>
	<path d="M459.8,400.067H67.267V109.933H459.8V400.067z M84.333,383h358.4V127h-358.4V383z"/>
	<path d="M476.867,297.667c-5.12,0-8.533-3.413-8.533-8.533v-42.667c0-5.12,3.413-8.533,8.533-8.533c5.12,0,8.533,3.413,8.533,8.533
		v42.667C485.4,294.253,481.987,297.667,476.867,297.667z"/>
	<path d="M476.867,229.4c-5.12,0-8.533-3.413-8.533-8.533v-8.533c0-5.12,3.413-8.533,8.533-8.533c5.12,0,8.533,3.413,8.533,8.533
		v8.533C485.4,225.987,481.987,229.4,476.867,229.4z"/>
	<path d="M41.667,289.133c-18.773,0-34.133-15.36-34.133-34.133s15.36-34.133,34.133-34.133S75.8,236.227,75.8,255
		S60.44,289.133,41.667,289.133z M41.667,237.933c-9.387,0-17.067,7.68-17.067,17.067s7.68,17.067,17.067,17.067
		s17.067-7.68,17.067-17.067S51.053,237.933,41.667,237.933z"/>
	<path d="M478.573,511h-19.627c-13.653,0-23.893-11.093-23.893-23.893V467.48c0-13.653,11.093-23.893,23.893-23.893h19.627
		c13.653,0,23.893,11.093,23.893,23.893v19.627C502.467,499.907,491.373,511,478.573,511z M458.093,459.8
		c-4.267,0-6.827,3.413-6.827,6.827v19.627c0,4.267,3.413,6.827,6.827,6.827h19.627c4.267,0,6.827-3.413,6.827-6.827v-19.627
		c0-4.267-3.413-6.827-6.827-6.827H458.093z"/>
	<path d="M393.24,511h-19.627c-13.653,0-23.893-11.093-23.893-23.893V467.48c0-13.653,11.093-23.893,23.893-23.893h19.627
		c13.653,0,23.893,11.093,23.893,23.893v19.627C417.133,499.907,406.04,511,393.24,511z M372.76,459.8
		c-4.267,0-6.827,3.413-6.827,6.827v19.627c0,4.267,3.413,6.827,6.827,6.827h19.627c4.267,0,6.827-3.413,6.827-6.827v-19.627
		c0-4.267-3.413-6.827-6.827-6.827H372.76z"/>
	<path d="M307.907,511H288.28c-13.653,0-23.893-11.093-23.893-23.893V467.48c0-13.653,11.093-23.893,23.893-23.893h19.627
		c13.653,0,23.893,11.093,23.893,23.893v19.627C331.8,499.907,320.707,511,307.907,511z M287.427,459.8
		c-4.267,0-6.827,3.413-6.827,6.827v19.627c0,4.267,3.413,6.827,6.827,6.827h19.627c4.267,0,6.827-3.413,6.827-6.827v-19.627
		c0-4.267-3.413-6.827-6.827-6.827H287.427z"/>
	<path d="M222.573,511h-19.627c-13.653,0-23.893-11.093-23.893-23.893V467.48c0-13.653,11.093-23.893,23.893-23.893h19.627
		c13.653,0,23.893,11.093,23.893,23.893v19.627C246.467,499.907,235.373,511,222.573,511z M202.093,459.8
		c-4.267,0-6.827,3.413-6.827,6.827v19.627c0,4.267,3.413,6.827,6.827,6.827h19.627c4.267,0,6.827-3.413,6.827-6.827v-19.627
		c0-4.267-3.413-6.827-6.827-6.827H202.093z"/>
	<path d="M137.24,511h-19.627c-13.653,0-23.893-11.093-23.893-23.893V467.48c0-13.653,11.093-23.893,23.893-23.893h19.627
		c13.653,0,23.893,11.093,23.893,23.893v19.627C161.133,499.907,150.04,511,137.24,511z M116.76,459.8
		c-4.267,0-6.827,3.413-6.827,6.827v19.627c0,4.267,3.413,6.827,6.827,6.827h19.627c4.267,0,6.827-3.413,6.827-6.827v-19.627
		c0-4.267-3.413-6.827-6.827-6.827H116.76z"/>
	<path d="M51.907,511h-20.48c-12.8,0-23.893-11.093-23.893-23.893V467.48c0-13.653,11.093-24.747,23.893-24.747h19.627
		c13.653,0,24.747,11.093,24.747,23.893v19.627C75.8,499.907,64.707,511,51.907,511z M31.427,459.8
		c-3.413,0-6.827,3.413-6.827,6.827v19.627c0,4.267,3.413,7.68,6.827,7.68h19.627c4.267,0,7.68-3.413,7.68-6.827V467.48
		c0-4.267-3.413-7.68-6.827-7.68H31.427z"/>
	<path d="M478.573,67.267h-19.627c-13.653,0-24.747-11.093-24.747-23.893v-20.48C434.2,10.093,445.293-1,458.093-1h19.627
		c13.653,0,24.747,11.093,24.747,23.893V42.52C502.467,56.173,491.373,67.267,478.573,67.267z M458.093,16.067
		c-3.413,0-6.827,3.413-6.827,6.827V42.52c0,4.267,3.413,7.68,6.827,7.68h19.627c4.267,0,7.68-3.413,7.68-6.827v-20.48
		c0-3.413-3.413-6.827-6.827-6.827H458.093z"/>
	<path d="M393.24,67.267h-19.627c-13.653,0-24.747-11.093-24.747-23.893v-20.48C348.867,10.093,359.96-1,372.76-1h19.627
		c13.653,0,24.747,11.093,24.747,23.893V42.52C417.133,56.173,406.04,67.267,393.24,67.267z M372.76,16.067
		c-3.413,0-6.827,3.413-6.827,6.827V42.52c0,4.267,3.413,7.68,6.827,7.68h19.627c4.267,0,7.68-3.413,7.68-6.827v-20.48
		c0-3.413-3.413-6.827-6.827-6.827H372.76z"/>
	<path d="M307.907,67.267H288.28c-13.653,0-24.747-11.093-24.747-23.893v-20.48c0-12.8,11.093-23.893,23.893-23.893h19.627
		C320.707-1,331.8,10.093,331.8,22.893V42.52C331.8,56.173,320.707,67.267,307.907,67.267z M287.427,16.067
		c-3.413,0-6.827,3.413-6.827,6.827V42.52c0,4.267,3.413,7.68,6.827,7.68h19.627c4.267,0,7.68-3.413,7.68-6.827v-20.48
		c0-3.413-3.413-6.827-6.827-6.827H287.427z"/>
	<path d="M222.573,67.267h-19.627c-13.653,0-24.747-11.093-24.747-23.893v-20.48C178.2,10.093,189.293-1,202.093-1h19.627
		c13.653,0,24.747,11.093,24.747,23.893V42.52C246.467,56.173,235.373,67.267,222.573,67.267z M202.093,16.067
		c-3.413,0-6.827,3.413-6.827,6.827V42.52c0,4.267,3.413,7.68,6.827,7.68h19.627c4.267,0,7.68-3.413,7.68-6.827v-20.48
		c0-3.413-3.413-6.827-6.827-6.827H202.093z"/>
	<path d="M137.24,67.267h-19.627c-13.653,0-24.747-11.093-24.747-23.893v-20.48C92.867,10.093,103.96-1,116.76-1h19.627
		c13.653,0,24.747,11.093,24.747,23.893V42.52C161.133,56.173,150.04,67.267,137.24,67.267z M116.76,16.067
		c-3.413,0-6.827,3.413-6.827,6.827V42.52c0,4.267,3.413,7.68,6.827,7.68h19.627c4.267,0,7.68-3.413,7.68-6.827v-20.48
		c0-3.413-3.413-6.827-6.827-6.827H116.76z"/>
	<path d="M51.907,67.267h-20.48c-12.8,0-23.893-11.093-23.893-23.893v-20.48C7.533,10.093,18.627-1,31.427-1h19.627
		C64.707-1,75.8,10.093,75.8,22.893V42.52C75.8,56.173,64.707,67.267,51.907,67.267z M31.427,16.067
		c-3.413,0-6.827,3.413-6.827,6.827V42.52c0,4.267,3.413,7.68,6.827,7.68h19.627c4.267,0,7.68-3.413,7.68-6.827v-20.48
		c0-3.413-3.413-6.827-6.827-6.827H31.427z"/>
	<path d="M212.333,459.8c-5.12,0-8.533-3.413-8.533-8.533v-59.733c0-5.12,3.413-8.533,8.533-8.533c5.12,0,8.533,3.413,8.533,8.533
		v59.733C220.867,456.387,217.453,459.8,212.333,459.8z"/>
	<path d="M127,459.8c-5.12,0-8.533-3.413-8.533-8.533v-59.733c0-5.12,3.413-8.533,8.533-8.533s8.533,3.413,8.533,8.533v59.733
		C135.533,456.387,132.12,459.8,127,459.8z"/>
	<path d="M41.667,459.8c-5.12,0-8.533-3.413-8.533-8.533v-59.733c0-5.12,3.413-8.533,8.533-8.533s8.533,3.413,8.533,8.533v59.733
		C50.2,456.387,46.787,459.8,41.667,459.8z"/>
	<path d="M468.333,459.8c-5.12,0-8.533-3.413-8.533-8.533v-59.733c0-5.12,3.413-8.533,8.533-8.533c5.12,0,8.533,3.413,8.533,8.533
		v59.733C476.867,456.387,473.453,459.8,468.333,459.8z"/>
	<path d="M383,459.8c-5.12,0-8.533-3.413-8.533-8.533v-59.733c0-5.12,3.413-8.533,8.533-8.533c5.12,0,8.533,3.413,8.533,8.533
		v59.733C391.533,456.387,388.12,459.8,383,459.8z"/>
	<path d="M297.667,459.8c-5.12,0-8.533-3.413-8.533-8.533v-59.733c0-5.12,3.413-8.533,8.533-8.533s8.533,3.413,8.533,8.533v59.733
		C306.2,456.387,302.787,459.8,297.667,459.8z"/>
	<path d="M212.333,127c-5.12,0-8.533-3.413-8.533-8.533V58.733c0-5.12,3.413-8.533,8.533-8.533c5.12,0,8.533,3.413,8.533,8.533
		v59.733C220.867,123.587,217.453,127,212.333,127z"/>
	<path d="M127,127c-5.12,0-8.533-3.413-8.533-8.533V58.733c0-5.12,3.413-8.533,8.533-8.533s8.533,3.413,8.533,8.533v59.733
		C135.533,123.587,132.12,127,127,127z"/>
	<path d="M41.667,127c-5.12,0-8.533-3.413-8.533-8.533V58.733c0-5.12,3.413-8.533,8.533-8.533s8.533,3.413,8.533,8.533v59.733
		C50.2,123.587,46.787,127,41.667,127z"/>
	<path d="M468.333,127c-5.12,0-8.533-3.413-8.533-8.533V58.733c0-5.12,3.413-8.533,8.533-8.533c5.12,0,8.533,3.413,8.533,8.533
		v59.733C476.867,123.587,473.453,127,468.333,127z"/>
	<path d="M383,127c-5.12,0-8.533-3.413-8.533-8.533V58.733c0-5.12,3.413-8.533,8.533-8.533c5.12,0,8.533,3.413,8.533,8.533v59.733
		C391.533,123.587,388.12,127,383,127z"/>
	<path d="M297.667,127c-5.12,0-8.533-3.413-8.533-8.533V58.733c0-5.12,3.413-8.533,8.533-8.533s8.533,3.413,8.533,8.533v59.733
		C306.2,123.587,302.787,127,297.667,127z"/>
</g>
</svg>